<?xml version="1.0" standalone="no"?>
<!DOCTYPE svg PUBLIC "-//W3C//DTD SVG 20010904//EN"
 "http://www.w3.org/TR/2001/REC-SVG-20010904/DTD/svg10.dtd">
<svg version="1.0" xmlns="http://www.w3.org/2000/svg"
 width="352.000000pt" height="352.000000pt" viewBox="0 0 352.000000 352.000000"
 preserveAspectRatio="xMidYMid meet">
<metadata>
Created by potrace 1.11, written by Peter Selinger 2001-2013
</metadata>
<g transform="translate(0.000000,352.000000) scale(0.100000,-0.100000)"
fill="#000000" stroke="none">
<path d="M775 3126 c-104 -17 -183 -40 -272 -81 -194 -89 -359 -261 -427 -446
-152 -410 -28 -901 314 -1251 101 -103 191 -158 257 -158 119 0 285 77 480
223 79 59 143 109 143 111 0 3 -80 68 -177 147 -205 163 -218 176 -202 195 14
17 135 104 144 104 4 0 103 -65 220 -145 118 -80 221 -148 229 -151 10 -4 85
48 211 146 220 171 258 195 334 208 160 29 198 -82 73 -220 -20 -22 -128 -110
-240 -196 -112 -85 -206 -162 -210 -170 -3 -8 20 -132 52 -275 64 -297 67
-274 -34 -322 -52 -25 -62 -27 -74 -14 -7 8 -46 113 -86 234 -40 121 -76 224
-80 229 -12 12 -153 -87 -226 -159 -85 -84 -99 -112 -99 -210 0 -91 22 -147
92 -231 80 -96 256 -221 394 -280 85 -36 194 -44 270 -19 128 42 307 149 647
388 395 278 710 604 855 886 106 204 140 341 141 556 1 214 -40 376 -133 518
-57 87 -184 208 -272 260 -332 195 -794 177 -1114 -44 -77 -53 -169 -144 -202
-199 -9 -16 -20 -30 -23 -30 -3 0 -13 12 -22 28 -50 84 -198 212 -313 270
-186 93 -435 131 -650 98z"/>
</g>
</svg>
