<?xml version="1.0" encoding="UTF-8"?>
<svg width="106px" height="106px" viewBox="0 0 106 106" version="1.1" xmlns="http://www.w3.org/2000/svg" xmlns:xlink="http://www.w3.org/1999/xlink" style="background: #FFFFFF;">
    <!-- Generator: Sketch 42 (36781) - http://www.bohemiancoding.com/sketch -->
    <title>Artboard Copy</title>
    <desc>Created with Sketch.</desc>
    <defs>
        <path d="M76.5056943,0 C84.772406,0 91.5572468,2.42293196 96.8604203,7.26886858 C102.163594,12.1148052 104.815141,18.7583283 104.815141,27.1996373 C104.815141,35.7972668 101.617687,44.0039718 95.2226838,51.8199986 C88.9836561,59.4797049 81.1849885,66.3577053 71.826447,72.4542062 C68.0830304,74.9553348 58.0542594,82.5368304 52.4075704,82.5368304 C46.7608815,82.5368304 41.5673569,78.0817455 32.9886939,72.4542062 C23.6301524,66.3577053 15.8314848,59.4797049 9.59245709,51.8199986 C3.19745372,44.0039718 0,35.7972668 0,27.1996373 C0,18.7583283 2.65154699,12.1148052 7.95472051,7.26886858 C13.257894,2.42293196 20.0427349,0 28.3094465,0 C33.144693,0 37.7849002,1.09422734 42.2302074,3.28271484 C46.6755146,5.47120235 50.067935,8.51940708 52.4075704,12.4274205 C54.7472058,8.51940708 58.1396262,5.47120235 62.5849334,3.28271484 C67.0302406,1.09422734 71.6704479,0 76.5056943,0 Z" id="path-1"></path>
        <linearGradient x1="50%" y1="0%" x2="86.2519976%" y2="59.5100419%" id="linearGradient-3">
            <stop stop-color="#000000" offset="0%"></stop>
            <stop stop-color="#000000" stop-opacity="0" offset="100%"></stop>
        </linearGradient>
    </defs>
    <g id="Page-1" stroke="none" stroke-width="1" fill="none" fill-rule="evenodd">
        <g id="Artboard-Copy">
            <g id="Group" transform="translate(1.000000, 13.000000)">
                <g id="Rectangle">
                    <mask id="mask-2" fill="white">
                        <use xlink:href="#path-1"></use>
                    </mask>
                    <use id="Mask" fill="#FF5252" xlink:href="#path-1"></use>
                    <polygon fill="url(#linearGradient-3)" opacity="0.200464221" mask="url(#mask-2)" points="22.5383748 67.994751 64.787357 35.2037877 91.2193277 67.994751 42.1478873 100.785714"></polygon>
                </g>
                <path d="M61.2040792,32.6440181 C61.7427453,31.0238264 61.6419666,29.775008 60.900416,28.897031 C60.0247297,28.1542843 58.7784008,28.0533714 57.1614293,28.592519 C55.5446348,29.132642 54.0962177,30.0439611 52.8160894,31.3266535 L42.8161387,42.3358258 L28.1136872,35.7152909 C27.8441772,35.6307831 27.5915669,35.6982652 27.3559447,35.9176486 L24.1222672,39.1582981 C23.9372556,39.3441621 23.8612513,39.5719697 23.8950506,39.8419869 C23.9455727,40.1123587 24.0888218,40.3146278 24.3245324,40.4497694 L37.1574906,47.5133122 L30.8196432,54.2884974 C30.8196432,54.2884974 25.4399021,59.7103042 20.5105003,60.5814124 C14.3227183,61.6748975 5.20292696,51.5027041 5.20745922,51.5618015 C5.21484312,51.6214144 9.37132734,58.3549489 18.0042743,64.0030874 C26.6372213,69.651226 38.0618488,73.7957088 45.5064726,76.2308452 C45.5064726,76.2308452 38.0713509,72.9353039 36.018786,68.7633471 C34.2303964,65.1283416 34.6640091,62.8374098 36.5617016,59.8995247 C38.4593942,56.9616396 42.8161387,53.1839389 42.8161387,53.1839389 L49.8644532,66.0459786 C49.9653204,66.2654507 50.1421033,66.4004149 50.3948906,66.4511374 C50.4451472,66.4680744 50.5041634,66.4763212 50.5717621,66.4763212 C50.7734079,66.4763212 50.9336452,66.4255988 51.051412,66.3245086 L54.2855319,63.8941767 C54.5713222,63.6580336 54.6724549,63.3797696 54.5886643,63.05903 L48.381263,47.9521196 L58.4762417,36.999231 C59.7558391,35.7160066 60.6651477,34.2642098 61.2040792,32.6440181 Z" id="Shape-Copy" fill="#FFFFFF" transform="translate(33.375883, 52.241444) rotate(10.000000) translate(-33.375883, -52.241444) "></path>
            </g>
        </g>
    </g>
</svg>